<svg version="1.0" xmlns="http://www.w3.org/2000/svg" width="16" height="16" viewBox="0 0 555 543"><path fill="#DDD" fill-opacity=".7" d="M355.5.7c-27.4 3.6-56 12-90.9 26.9-32.5 13.8-69.7 44.9-72.2 60.4-.5 3.3-1.4 4.1-12.7 11-41.4 25.2-69.4 51.5-82.3 77.3l-4.6 9 .4 21.1c.4 19 .6 21.7 2.7 27.6 6.4 17.8 19.4 34.8 39.4 51.4 8.8 7.4 10.7 8.6 14 8.6 4.3 0 4.3.2 2.2-10.7-1.4-7.1-1.4-8.6.2-17.3.9-5.2 1.8-9.6 1.9-9.8.1-.2 2.1.6 4.5 1.8 3 1.6 5.2 2 7.8 1.6 5.1-.8 7.1-3.7 7.1-10.2V244h-3.3c-3.6 0-7.7 3.3-7.7 6.3 0 1.3-.9 1.7-3.9 1.7-8.4 0-5.9-3.9 6.6-10.1 10.3-5.1 15.7-6 19.4-3 1.5 1.1 5.4 6.1 8.8 11.1 3.4 4.9 6.7 9 7.4 9 2.8 0 7.7-4 7.7-6.4 0-3.5 4.7-27.5 7.6-39.1 3.1-12.4 8.6-24.2 12-25.7 1.3-.6 2.7-2.3 3-3.7 1.2-5.6 2.8-8.2 8-13.1 10-9.4 32.1-17.8 61.9-23.5 13.4-2.6 13.7-2.6 21.8-1 10.8 2.1 24.2 6.6 40.2 13.3 26.9 11.2 45.9 23.1 63.3 39.6 6.6 6.3 7.2 7.2 7.2 10.8v4l-4.2-.7c-2.4-.4-5.8-1.3-7.7-2.1-11.2-4.6-30.2 3.7-36.8 16.1-2.2 4.1-1.3 16.9 1.7 23 4.9 10.1 17 18.2 33.8 22.7l8.2 2.1 4.8-2.2c4.2-2 5.4-2.1 8.9-1.2 2.2.6 5.2 2 6.5 3.1 3.6 2.7 6.7 10 7.4 16.9.6 5.4.5 5.9-1.5 6.6-1.1.3-2.1 1.2-2.1 1.8 0 1.3 5.4 4.7 7.5 4.7 1.6 0 20.4-12.3 31-20.4 10.5-7.9 27-24.5 32.4-32.4 9.5-14 13.1-25.4 13.1-41 0-11.8-1.7-19.7-6.1-28.6-8.7-17.6-27.5-33.9-52.7-45.8-5.9-2.8-13.8-6.5-17.7-8.4-14.1-6.8-25.5-17.4-32.4-30.4-1.6-3-5.5-14.2-8.6-24.8C406.6 32.1 394 8.6 380.6 2.4 376.4.4 374 0 367 .2c-4.7 0-9.8.3-11.5.5zM249 71c0 1.8-.7 2-7.5 2s-7.5-.2-7.5-2 .7-2 7.5-2 7.5.2 7.5 2zm166.3 182c10.9 1.6 17.7 6.1 17.7 11.7 0 2.9-.2 2.9-12.4-.3-13.7-3.6-21.6-7.7-21.6-11.1 0-1.6 6.4-1.7 16.3-.3z"/><path fill="#DDD" fill-opacity=".7" d="m312.8 200.2-9.8 2.1v3.8c0 3.9 0 3.9 4.1 3.9h4l-.3 3.7c-.3 3.6-.4 3.7-5.8 4.8-5.9 1.2-12.5 4.2-17.7 8.1-2.4 1.9-4.4 2.4-8.7 2.4-6 0-6.3-.2-4.1-4 .8-1.4 1.4-2.8 1.5-3.3 0-1.5-5.9-.6-8.1 1.2-2.1 1.7-2.4 3-2.7 10l-.4 8.1 2.8-.5c9.4-1.6 33.6-3.5 44.8-3.5 13.9 0 15.8.5 17.1 4.7l.6 2.3-19.3.2-19.3.3-.3 3.7-.3 3.8h35.5l12.9-8.6c15.5-10.4 25.9-19.1 27.7-23.3 1-2.6 1-3.5-.4-5.5-2-3.1-8.5-7-16.2-9.6-6.3-2.3-25.3-7.1-26.9-6.9-.5.1-5.4 1-10.7 2.1zM180 281c-1 1-3.1 4.3-4.6 7.1-2.3 4.6-2.4 5.3-1 6.1.9.5 1.6 1.6 1.6 2.4 0 1.2.8 1.1 4.2-.8 5.2-2.9 7.8-7.1 7.8-12.6 0-4-.1-4.2-3-4.2-1.6 0-3.9.9-5 2zm135.5-.3c-11 4.5-23.7 16.4-36.4 34.1-6.7 9.3-7.3 10.5-6.7 13.7 1.1 5.7 8.1 9.5 25.3 13.6l8.2 1.9 13.8-3.7c11.9-3.2 15.2-3.7 24.3-3.6 17.7.1 36.8 4.7 41 10 1.1 1.4 2 3 2 3.4 0 .5-8.5.9-19 .9h-19v2.5c0 2.3.4 2.5 4.3 2.5 7.7 0 27.7 3.8 32.5 6.2 4.5 2.2 4.7 2.5 5 7 .2 2.7 0 4.8-.3 4.8s-2.3-.9-4.5-2c-3.5-1.8-5.9-2-23.2-2-21.1 0-22.9.4-24.9 5.8-1.6 4.1.6 6.9 8.5 10.7 7.1 3.5 31.6 10.5 36.8 10.5 4 0 11.8-2.8 15.6-5.7 4-3 7.2-7.9 7.2-11.1 0-1.9.5-2.2 4-2.2 5.3 0 5.3 2.2 0 9.2-4 5.1-15.5 27-17.8 33.5l-1.1 3.3h-32.9c-26.8 0-33.8-.3-38.1-1.6-2.8-.8-12-5-20.4-9.3l-15.2-7.7-.6-7c-.4-4.9-1.7-9.4-4.3-15.4-8.9-20.3-17-48-18.2-62.3l-.7-7.7H249v4.4c0 6.3 1.4 9.2 4.9 10.4 3.5 1.2 3.9 2.6 1.4 4-1.5.9-1.5 1.6 0 11 .9 5.6 1.7 12.2 1.7 14.8 0 4.5-.1 4.6-2.6 4-4.3-1.1-18.3-8.4-23.5-12.2-2.7-1.9-5.8-4.9-7-6.5l-2.1-3-2.5 2.3c-2.8 2.6-9.8 15-10.8 19-.5 2-.1 3.6 1.5 5.8 1.2 1.7 10.4 15.9 20.5 31.7l18.4 28.6 11.3 9.9c23.9 21.1 30.8 28.8 30.8 34.3 0 5.3-3.8 16.3-9.1 26.4-2.7 5.2-4.9 9.8-4.9 10.3s1.4 2.9 3.1 5.4c3.2 4.7 3.1 6.4-.4 6.4-1.3 0-3.2.7-4.4 1.5-2.2 1.5-3.9 6.7-2.8 8.4 1.1 1.9 38.5-11.9 58-21.4 30.9-15 53.4-34.7 62.1-54.1 3.6-8.1 4.3-10.7 5.4-19.6.7-6.1 1.6-8.8 4.3-13 1.9-2.9 5-7.8 6.9-10.8 8.5-13.2 24.7-42.7 30.9-56 10.9-23.7 13.8-35.7 10-41.8-2.2-3.4-5.1-4.3-5.1-1.6 0 1.4-.8 1.6-4.7 1-9.4-1.2-19.3-8-27.9-18.8l-2.9-3.8-8.3 2.5c-12 3.5-24.7 5.9-27.7 5.1-1.6-.4-3.2-1.9-4.2-4.2-1.4-2.9-2.1-3.4-4.3-3-1.4.3-7.3 1.3-13.2 2.2-9.1 1.4-10.8 2-10.8 3.5 0 1 5.8 8.4 13 16.4 7.1 8.1 12.8 15.1 12.5 15.5-.6 1-64.6 1.1-66.3.1-.9-.6-.8-2 .7-6.2 1.6-4.8 1.7-5.9.5-8-.7-1.3-1.3-2.9-1.4-3.6 0-.6 4.3-4.9 9.6-9.5 10.8-9.3 16.4-15.9 16.4-19.4 0-2-.5-2.4-3.2-2.3-1.8 0-5.1.7-7.3 1.6zM429 349.5c0 3.5-5.4 14-8.2 15.9-2 1.4-5.8 2.2-5.8 1.3 0-.2 2.3-4.1 5-8.7 2.8-4.6 5-8.9 5-9.7 0-.7.9-1.3 2-1.3 1.5 0 2 .7 2 2.5zm-159.1 32.3c2.6 3.8 6.1 13 6.1 16.4 0 3.7-3.5 3.9-4.4.3-.4-1.4-2.9-4.9-5.6-7.7-3.9-4.1-5-5.9-5-8.5 0-3.1.2-3.3 3.4-3.3 2.7 0 3.9.7 5.5 2.8z"/><path fill="#DDD" fill-opacity=".7" d="M232.2 319.4c-3.8 10.9-2.6 15.4 2.7 10.5 2.8-2.6 7.1-11.5 7.1-14.7 0-1.9-.5-2.2-3.8-2.2-3.7 0-3.7.1-6 6.4zm-55.8 7.3-3.1 1.5 6.2 13.2c8.3 17.2 11.5 27.7 12.2 39.3l.6 9.3h3.3c3.1 0 3.2-.1 3.8-5.3.4-2.8 1.4-9.3 2.3-14.3.9-5 1.3-9.9 1-10.8-.4-.9-1.9-2.2-3.4-2.8-1.5-.7-2.9-1.3-3.1-1.4-.2-.1.4-1.6 1.2-3.3 2-3.8 2.3-20.1.4-20.1-.7 0-3.2.9-5.6 2l-4.2 1.9-3.7-5.4c-2-3-3.9-5.5-4.2-5.4-.3 0-2 .7-3.7 1.6zm228.9 137.5c-1.8 2-2.1 4.1-2.7 16.3-.3 7.7-1.3 23.8-2.3 35.9l-1.7 21.9 2.8 2.3 2.7 2.4H555v-4c0-2.4-.5-4.2-1.2-4.5-.7-.2-10-3.1-20.6-6.5-64.6-20.5-107.1-42.4-120.9-62.2-3-4.4-4.2-4.7-7-1.6zm-206 3.4c-.9 2.5.4 9.5 2.3 11.5 1 1.1 2.7 1.9 3.8 1.7 1.8-.3 2-.9 1.7-5.3-.1-2.8-.9-5.7-1.7-6.7-2.2-2.3-5.4-3-6.1-1.2zm-37.9 5.5c-14.8 15.5-69.3 37.3-142.5 56.9-8.5 2.3-16.2 4.3-17.1 4.6-2.4.7-.5 5.8 2.8 7.3 1.8.8 21.6 1.1 69.9 1.1h67.3l5.7-6.8c12.4-14.9 21.5-40.9 21.5-61.8 0-3.9-.2-4.4-2.3-4.4-1.3 0-3.6 1.4-5.3 3.1zm163.1 47.6c-7.6 1.6-21.6 6.8-30.7 11.4-5.6 2.8-5.8 3.1-5.8 6.9v4h10.3c6.4-.1 10.8-.5 11.8-1.3 2.3-1.7 3.9-5.2 3.9-8.1 0-2.4.4-2.6 4-2.6h4v12h9.4c7.8 0 10.1-.4 13-2.1 2-1.2 3.6-2.7 3.6-3.3 0-1.2-12.2-16.3-14.4-17.8-1.3-.9-.5-1-9.1.9zm-113.6 1.7c-9.9 2.9-18.6 7.3-21 10.7-1 1.5-1.9 4.3-1.9 6.3v3.6h20.3c25.3-.1 25.2 0 25.2-11.5v-7.6L228 522c-6.9-2.4-7.8-2.4-17.1.4z"/></svg>