<svg viewBox="0 0 32 32" xmlns="http://www.w3.org/2000/svg"><path d="M19 20a1 1 0 01-.71-.29l-3-3A1 1 0 0115 16v-5a1 1 0 012 0v4.59l2.71 2.7a1 1 0 010 1.42A1 1 0 0119 20zM16 8a1 1 0 01-1-1V3a1 1 0 012 0v4a1 1 0 01-1 1zm-9 9H3a1 1 0 010-2h4a1 1 0 010 2zm-.19 9.19a1 1 0 01-.71-.29 1 1 0 010-1.41l2.83-2.83a1 1 0 011.41 1.41L7.51 25.9a1 1 0 01-.7.29zM16 30a1 1 0 01-1-1v-4a1 1 0 012 0v4a1 1 0 01-1 1zm9.19-3.81a1 1 0 01-.7-.29l-2.83-2.83a1 1 0 011.41-1.41l2.83 2.83a1 1 0 010 1.41 1 1 0 01-.71.29zM29 17h-4a1 1 0 010-2h4a1 1 0 010 2zm-6.64-6.36a1 1 0 01-.7-.3 1 1 0 010-1.41l2.83-2.83a1 1 0 111.41 1.41l-2.83 2.83a1 1 0 01-.71.3z" fill="#0e6ae0"/><path d="M16 2A13.94 13.94 0 006 6.23V5a1 1 0 00-2 0v4a1 1 0 001 1h4a1 1 0 000-2H7.08A12 12 0 114 16a12.2 12.2 0 01.32-2.77 1 1 0 00-1.95-.46A14.54 14.54 0 002 16 14 14 0 1016 2z" fill="#0593ff"/></svg>
