<svg xmlns="http://www.w3.org/2000/svg" viewBox="0 0 32 32"><path d="M18.7 19.6a.9.9 0 0 1-.639-.261l-2.7-2.7A.9.9 0 0 1 15.1 16v-4.5a.9.9 0 0 1 1.8 0v4.131l2.439 2.43a.9.9 0 0 1 0 1.278.9.9 0 0 1-.639.261zM16 8.8a.9.9 0 0 1-.9-.9V4.3a.9.9 0 0 1 1.8 0v3.6a.9.9 0 0 1-.9.9zm-8.1 8.1H4.3a.9.9 0 0 1 0-1.8h3.6a.9.9 0 0 1 0 1.8zm-.171 8.271a.9.9 0 0 1-.639-.261.9.9 0 0 1 0-1.269l2.547-2.547a.9.9 0 0 1 1.269 1.269L8.359 24.91a.9.9 0 0 1-.63.261zM16 28.6a.9.9 0 0 1-.9-.9v-3.6a.9.9 0 0 1 1.8 0v3.6a.9.9 0 0 1-.9.9zm8.271-3.429a.9.9 0 0 1-.63-.261l-2.547-2.547a.9.9 0 0 1 1.269-1.269l2.547 2.547a.9.9 0 0 1 0 1.269.9.9 0 0 1-.639.261zM27.7 16.9h-3.6a.9.9 0 0 1 0-1.8h3.6a.9.9 0 0 1 0 1.8zm-5.976-5.724a.9.9 0 0 1-.63-.27.9.9 0 0 1 0-1.269l2.547-2.547a.9.9 0 1 1 1.269 1.269l-2.547 2.547a.9.9 0 0 1-.639.27z" fill="#afb1b3"/><path d="M16 3.4a12.546 12.546 0 0 0-9 3.807V6.1a.9.9 0 0 0-1.8 0v3.6a.9.9 0 0 0 .9.9h3.6a.9.9 0 0 0 0-1.8H7.972A10.8 10.8 0 1 1 5.2 16a10.98 10.98 0 0 1 .288-2.493.902.902 0 0 0-1.755-.414A13.086 13.086 0 0 0 3.4 16 12.6 12.6 0 1 0 16 3.4z" fill="#afb1b3"/></svg>