<svg xmlns="http://www.w3.org/2000/svg" viewBox="0 0 32 32"><path d="M18.7 19.6a.9.9 0 01-.639-.261l-2.7-2.7A.9.9 0 0115.1 16v-4.5a.9.9 0 011.8 0v4.131l2.439 2.43a.9.9 0 010 1.278.9.9 0 01-.639.261zM16 8.8a.9.9 0 01-.9-.9V4.3a.9.9 0 011.8 0v3.6a.9.9 0 01-.9.9zm-8.1 8.1H4.3a.9.9 0 010-1.8h3.6a.9.9 0 010 1.8zm-.171 8.271a.9.9 0 01-.639-.261.9.9 0 010-1.269l2.547-2.547a.9.9 0 011.269 1.269L8.359 24.91a.9.9 0 01-.63.261zM16 28.6a.9.9 0 01-.9-.9v-3.6a.9.9 0 011.8 0v3.6a.9.9 0 01-.9.9zm8.271-3.429a.9.9 0 01-.63-.261l-2.547-2.547a.9.9 0 011.269-1.269l2.547 2.547a.9.9 0 010 1.269.9.9 0 01-.639.261zM27.7 16.9h-3.6a.9.9 0 010-1.8h3.6a.9.9 0 010 1.8zm-5.976-5.724a.9.9 0 01-.63-.27.9.9 0 010-1.269l2.547-2.547a.9.9 0 111.269 1.269l-2.547 2.547a.9.9 0 01-.639.27z" fill="#6e6e6e"/><path d="M16 3.4a12.546 12.546 0 00-9 3.807V6.1a.9.9 0 00-1.8 0v3.6a.9.9 0 00.9.9h3.6a.9.9 0 000-1.8H7.972A10.8 10.8 0 115.2 16a10.98 10.98 0 01.288-2.493.902.902 0 00-1.755-.414A13.086 13.086 0 003.4 16 12.6 12.6 0 1016 3.4z" fill="#6e6e6e"/></svg>
